<svg xmlns="http://www.w3.org/2000/svg" viewBox="0 0 200 200" width="200" height="200" role="img" aria-label="レンゲソウ">
<defs>
<linearGradient id="bg" x1="0" y1="0" x2="0" y2="1">
<stop offset="0" stop-color="#eaf4e2"/><stop offset="1" stop-color="#f6f2e2"/></linearGradient>
<clipPath id="cp"><circle cx="100" cy="100" r="96"/></clipPath>
</defs>
<circle cx="100" cy="100" r="96" fill="url(#bg)"/>
<g clip-path="url(#cp)">
<path d="M0 174 Q100 166 200 174 L200 200 L0 200Z" fill="#b6cd92"/>
<path d="M92 190 Q90 150 96 118" stroke="#5e9440" stroke-width="6" fill="none" stroke-linecap="round"/>
<path d="M54 192 Q54 166 60 146" stroke="#5e9440" stroke-width="5" fill="none" stroke-linecap="round"/>
<path d="M148 194 Q148 168 142 150" stroke="#5e9440" stroke-width="5" fill="none" stroke-linecap="round"/>
<g fill="#4e8a37">
<circle cx="66" cy="170" r="10"/><circle cx="80" cy="162" r="9"/><circle cx="74" cy="182" r="9"/>
<circle cx="126" cy="176" r="10"/><circle cx="114" cy="166" r="9"/><circle cx="132" cy="188" r="9"/>
<circle cx="34" cy="180" r="9"/><circle cx="46" cy="172" r="8"/>
<circle cx="166" cy="184" r="9"/><circle cx="158" cy="174" r="8"/>
</g>
<g stroke="#3d7a2c" stroke-width="1.6" fill="none" opacity=".6">
<path d="M60 170 h12 M74 158 h10 M120 176 h12"/>
</g>
<circle cx="96.0" cy="104.0" r="7.2" fill="#7aa83e"/><g transform="translate(96.0,82.2) rotate(0.0)"><path d="M-5.8 0.0 Q0 -15.9 5.8 0.0 Q0 5.8 -5.8 0.0 Z" fill="#d9629c"/><ellipse cx="0" cy="-8.7" rx="4.9" ry="6.4" fill="#e88ab8"/><ellipse cx="0" cy="-12.2" rx="3.2" ry="3.8" fill="#f4b4d2" opacity=".8"/></g><g transform="translate(111.4,88.6) rotate(45.0)"><path d="M-5.8 0.0 Q0 -15.9 5.8 0.0 Q0 5.8 -5.8 0.0 Z" fill="#d9629c"/><ellipse cx="0" cy="-8.7" rx="4.9" ry="6.4" fill="#e88ab8"/><ellipse cx="0" cy="-12.2" rx="3.2" ry="3.8" fill="#f4b4d2" opacity=".8"/></g><g transform="translate(117.8,104.0) rotate(90.0)"><path d="M-5.8 0.0 Q0 -15.9 5.8 0.0 Q0 5.8 -5.8 0.0 Z" fill="#d9629c"/><ellipse cx="0" cy="-8.7" rx="4.9" ry="6.4" fill="#e88ab8"/><ellipse cx="0" cy="-12.2" rx="3.2" ry="3.8" fill="#f4b4d2" opacity=".8"/></g><g transform="translate(111.4,119.4) rotate(135.0)"><path d="M-5.8 0.0 Q0 -15.9 5.8 0.0 Q0 5.8 -5.8 0.0 Z" fill="#d9629c"/><ellipse cx="0" cy="-8.7" rx="4.9" ry="6.4" fill="#e88ab8"/><ellipse cx="0" cy="-12.2" rx="3.2" ry="3.8" fill="#f4b4d2" opacity=".8"/></g><g transform="translate(96.0,125.8) rotate(180.0)"><path d="M-5.8 0.0 Q0 -15.9 5.8 0.0 Q0 5.8 -5.8 0.0 Z" fill="#d9629c"/><ellipse cx="0" cy="-8.7" rx="4.9" ry="6.4" fill="#e88ab8"/><ellipse cx="0" cy="-12.2" rx="3.2" ry="3.8" fill="#f4b4d2" opacity=".8"/></g><g transform="translate(80.6,119.4) rotate(225.0)"><path d="M-5.8 0.0 Q0 -15.9 5.8 0.0 Q0 5.8 -5.8 0.0 Z" fill="#d9629c"/><ellipse cx="0" cy="-8.7" rx="4.9" ry="6.4" fill="#e88ab8"/><ellipse cx="0" cy="-12.2" rx="3.2" ry="3.8" fill="#f4b4d2" opacity=".8"/></g><g transform="translate(74.2,104.0) rotate(270.0)"><path d="M-5.8 0.0 Q0 -15.9 5.8 0.0 Q0 5.8 -5.8 0.0 Z" fill="#d9629c"/><ellipse cx="0" cy="-8.7" rx="4.9" ry="6.4" fill="#e88ab8"/><ellipse cx="0" cy="-12.2" rx="3.2" ry="3.8" fill="#f4b4d2" opacity=".8"/></g><g transform="translate(80.6,88.6) rotate(315.0)"><path d="M-5.8 0.0 Q0 -15.9 5.8 0.0 Q0 5.8 -5.8 0.0 Z" fill="#d9629c"/><ellipse cx="0" cy="-8.7" rx="4.9" ry="6.4" fill="#e88ab8"/><ellipse cx="0" cy="-12.2" rx="3.2" ry="3.8" fill="#f4b4d2" opacity=".8"/></g><circle cx="58.0" cy="140.0" r="4.8" fill="#7aa83e"/><g transform="translate(58.0,125.8) rotate(0.0)"><path d="M-3.8 0.0 Q0 -10.4 3.8 0.0 Q0 3.8 -3.8 0.0 Z" fill="#d9629c"/><ellipse cx="0" cy="-5.7" rx="3.2" ry="4.2" fill="#e88ab8"/><ellipse cx="0" cy="-8.0" rx="2.1" ry="2.5" fill="#f4b4d2" opacity=".8"/></g><g transform="translate(68.1,129.9) rotate(45.0)"><path d="M-3.8 0.0 Q0 -10.4 3.8 0.0 Q0 3.8 -3.8 0.0 Z" fill="#d9629c"/><ellipse cx="0" cy="-5.7" rx="3.2" ry="4.2" fill="#e88ab8"/><ellipse cx="0" cy="-8.0" rx="2.1" ry="2.5" fill="#f4b4d2" opacity=".8"/></g><g transform="translate(72.2,140.0) rotate(90.0)"><path d="M-3.8 0.0 Q0 -10.4 3.8 0.0 Q0 3.8 -3.8 0.0 Z" fill="#d9629c"/><ellipse cx="0" cy="-5.7" rx="3.2" ry="4.2" fill="#e88ab8"/><ellipse cx="0" cy="-8.0" rx="2.1" ry="2.5" fill="#f4b4d2" opacity=".8"/></g><g transform="translate(68.1,150.1) rotate(135.0)"><path d="M-3.8 0.0 Q0 -10.4 3.8 0.0 Q0 3.8 -3.8 0.0 Z" fill="#d9629c"/><ellipse cx="0" cy="-5.7" rx="3.2" ry="4.2" fill="#e88ab8"/><ellipse cx="0" cy="-8.0" rx="2.1" ry="2.5" fill="#f4b4d2" opacity=".8"/></g><g transform="translate(58.0,154.2) rotate(180.0)"><path d="M-3.8 0.0 Q0 -10.4 3.8 0.0 Q0 3.8 -3.8 0.0 Z" fill="#d9629c"/><ellipse cx="0" cy="-5.7" rx="3.2" ry="4.2" fill="#e88ab8"/><ellipse cx="0" cy="-8.0" rx="2.1" ry="2.5" fill="#f4b4d2" opacity=".8"/></g><g transform="translate(47.9,150.1) rotate(225.0)"><path d="M-3.8 0.0 Q0 -10.4 3.8 0.0 Q0 3.8 -3.8 0.0 Z" fill="#d9629c"/><ellipse cx="0" cy="-5.7" rx="3.2" ry="4.2" fill="#e88ab8"/><ellipse cx="0" cy="-8.0" rx="2.1" ry="2.5" fill="#f4b4d2" opacity=".8"/></g><g transform="translate(43.8,140.0) rotate(270.0)"><path d="M-3.8 0.0 Q0 -10.4 3.8 0.0 Q0 3.8 -3.8 0.0 Z" fill="#d9629c"/><ellipse cx="0" cy="-5.7" rx="3.2" ry="4.2" fill="#e88ab8"/><ellipse cx="0" cy="-8.0" rx="2.1" ry="2.5" fill="#f4b4d2" opacity=".8"/></g><g transform="translate(47.9,129.9) rotate(315.0)"><path d="M-3.8 0.0 Q0 -10.4 3.8 0.0 Q0 3.8 -3.8 0.0 Z" fill="#d9629c"/><ellipse cx="0" cy="-5.7" rx="3.2" ry="4.2" fill="#e88ab8"/><ellipse cx="0" cy="-8.0" rx="2.1" ry="2.5" fill="#f4b4d2" opacity=".8"/></g><circle cx="142.0" cy="144.0" r="5.0" fill="#7aa83e"/><g transform="translate(142.0,129.0) rotate(0.0)"><path d="M-4.0 0.0 Q0 -11.0 4.0 0.0 Q0 4.0 -4.0 0.0 Z" fill="#d9629c"/><ellipse cx="0" cy="-6.0" rx="3.4" ry="4.4" fill="#e88ab8"/><ellipse cx="0" cy="-8.4" rx="2.2" ry="2.6" fill="#f4b4d2" opacity=".8"/></g><g transform="translate(152.6,133.4) rotate(45.0)"><path d="M-4.0 0.0 Q0 -11.0 4.0 0.0 Q0 4.0 -4.0 0.0 Z" fill="#d9629c"/><ellipse cx="0" cy="-6.0" rx="3.4" ry="4.4" fill="#e88ab8"/><ellipse cx="0" cy="-8.4" rx="2.2" ry="2.6" fill="#f4b4d2" opacity=".8"/></g><g transform="translate(157.0,144.0) rotate(90.0)"><path d="M-4.0 0.0 Q0 -11.0 4.0 0.0 Q0 4.0 -4.0 0.0 Z" fill="#d9629c"/><ellipse cx="0" cy="-6.0" rx="3.4" ry="4.4" fill="#e88ab8"/><ellipse cx="0" cy="-8.4" rx="2.2" ry="2.6" fill="#f4b4d2" opacity=".8"/></g><g transform="translate(152.6,154.6) rotate(135.0)"><path d="M-4.0 0.0 Q0 -11.0 4.0 0.0 Q0 4.0 -4.0 0.0 Z" fill="#d9629c"/><ellipse cx="0" cy="-6.0" rx="3.4" ry="4.4" fill="#e88ab8"/><ellipse cx="0" cy="-8.4" rx="2.2" ry="2.6" fill="#f4b4d2" opacity=".8"/></g><g transform="translate(142.0,159.0) rotate(180.0)"><path d="M-4.0 0.0 Q0 -11.0 4.0 0.0 Q0 4.0 -4.0 0.0 Z" fill="#d9629c"/><ellipse cx="0" cy="-6.0" rx="3.4" ry="4.4" fill="#e88ab8"/><ellipse cx="0" cy="-8.4" rx="2.2" ry="2.6" fill="#f4b4d2" opacity=".8"/></g><g transform="translate(131.4,154.6) rotate(225.0)"><path d="M-4.0 0.0 Q0 -11.0 4.0 0.0 Q0 4.0 -4.0 0.0 Z" fill="#d9629c"/><ellipse cx="0" cy="-6.0" rx="3.4" ry="4.4" fill="#e88ab8"/><ellipse cx="0" cy="-8.4" rx="2.2" ry="2.6" fill="#f4b4d2" opacity=".8"/></g><g transform="translate(127.0,144.0) rotate(270.0)"><path d="M-4.0 0.0 Q0 -11.0 4.0 0.0 Q0 4.0 -4.0 0.0 Z" fill="#d9629c"/><ellipse cx="0" cy="-6.0" rx="3.4" ry="4.4" fill="#e88ab8"/><ellipse cx="0" cy="-8.4" rx="2.2" ry="2.6" fill="#f4b4d2" opacity=".8"/></g><g transform="translate(131.4,133.4) rotate(315.0)"><path d="M-4.0 0.0 Q0 -11.0 4.0 0.0 Q0 4.0 -4.0 0.0 Z" fill="#d9629c"/><ellipse cx="0" cy="-6.0" rx="3.4" ry="4.4" fill="#e88ab8"/><ellipse cx="0" cy="-8.4" rx="2.2" ry="2.6" fill="#f4b4d2" opacity=".8"/></g>
</g>
<circle cx="100" cy="100" r="95" fill="none" stroke="#00000018" stroke-width="2"/>
</svg>
